Coordinates
version=1
nRows=15
nColumns=46
inDegrees=yes

Units are S.I. units (second, meters, Newtons, ...)
Angles are in degrees.

endheader
time	pelvis_tilt	pelvis_list	pelvis_rotation	pelvis_tx	pelvis_ty	pelvis_tz	bb_angle	bb_tx	bb_ty	bb_tz	hip_flexion_r	hip_adduction_r	hip_rotation_r	knee_angle_r	knee_angle_r_beta	ankle_angle_r	subtalar_angle_r	mtp_angle_r	crank_angle_r	hip_flexion_l	hip_adduction_l	hip_rotation_l	knee_angle_l	knee_angle_l_beta	ankle_angle_l	subtalar_angle_l	mtp_angle_l	crank_angle_l	lumbar_extension	lumbar_bending	lumbar_rotation	arm_flex_r	arm_add_r	arm_rot_r	elbow_flex_r	pro_sup_r	wrist_flex_r	wrist_dev_r	arm_flex_l	arm_add_l	arm_rot_l	elbow_flex_l	pro_sup_l	wrist_flex_l	wrist_dev_l
      0.00500000	    -21.53525482	      5.95590872	      0.14076574	      0.12644726	      1.11139124	     -0.26589699	      0.00000000	      0.50000000	      0.00000000	      0.25000000	     46.53394263	     -8.22214609	      1.67851630	     46.48677988	      0.81134737	     12.35257820	     -5.84314466	      0.00000000	      0.00000000	     95.24076672	     -9.53645499	     -3.61261558	    101.58231006	      1.77294577	     18.97479537	      2.75160746	      0.00000000	      0.00000000	    -40.33417991	     -3.22257899	     -5.35374936	     84.42361973	     -5.71781726	     65.91202461	     19.37540075	     41.72275014	      0.00000000	      0.00000000	     88.50816540	    -11.85657014	     81.87841344	     13.44129213	     66.15255082	      0.00000000	      0.00000000
      0.01000000	    -21.52874569	      6.00354801	      0.13582738	      0.12648935	      1.11141744	     -0.26593405	      0.00000000	      0.50000000	      0.00000000	      0.25000000	     46.54022303	     -8.27026234	      1.69150497	     46.50991473	      0.81175115	     12.38834737	     -5.78170901	      0.00000000	      0.00000000	     95.21382895	     -9.53710755	     -3.67662399	    101.57909655	      1.77288969	     18.97054483	      2.75285250	      0.00000000	      0.00000000	    -40.32737019	     -3.28010329	     -5.37287019	     84.34382920	     -5.66320926	     65.49500333	     19.37785397	     41.47210661	      0.00000000	      0.00000000	     88.50406598	    -11.75669306	     81.75225505	     13.20519666	     66.86942549	      0.00000000	      0.00000000
      0.01500000	    -21.52035731	      5.96994536	      0.11828195	      0.12646320	      1.11144935	     -0.26584388	      0.00000000	      0.50000000	      0.00000000	      0.25000000	     46.51074198	     -8.21017693	      1.71033663	     46.46878416	      0.81103328	     12.33493592	     -5.88121129	      0.00000000	      0.00000000	     95.21478067	     -9.56513071	     -3.62770394	    101.58051958	      1.77291452	     18.99373130	      2.78972073	      0.00000000	      0.00000000	    -40.36492095	     -3.28441823	     -5.23835428	     84.43474520	     -6.02779103	     66.02343831	     19.60675249	     42.53825357	      0.00000000	      0.00000000	     88.41618938	    -11.61434644	     82.41140377	     13.49460649	     62.83048087	      0.00000000	      0.00000000
      0.02000000	    -21.45490483	      6.10540722	      0.17740856	      0.12648261	      1.11170125	     -0.26591547	      0.00000000	      0.50000000	      0.00000000	      0.25000000	     46.41278131	     -8.37817370	      1.72038106	     46.40988887	      0.81000537	     12.47799878	     -5.74715917	      0.00000000	      0.00000000	     95.06898849	     -9.49376052	     -3.80399278	    101.51825950	      1.77182788	     18.96176487	      2.72646036	      0.00000000	      0.00000000	    -40.44324424	     -3.37063068	     -5.51237834	     84.36750083	     -5.64820474	     65.20167822	     19.29877586	     42.31192976	      0.00000000	      0.00000000	     88.42362303	    -11.62729935	     81.75255515	     13.09983594	     64.59287886	      0.00000000	      0.00000000
      0.02500000	    -21.43218683	      5.93100417	      0.18747055	      0.12648004	      1.11169864	     -0.26591445	      0.00000000	      0.50000000	      0.00000000	      0.25000000	     46.31877681	     -8.22135583	      1.64995513	     46.33180426	      0.80864253	     12.42651008	     -5.84807179	      0.00000000	      0.00000000	     95.11184314	     -9.48028855	     -3.59670216	    101.54928818	      1.77236943	     19.00524782	      2.76278696	      0.00000000	      0.00000000	    -40.46848394	     -3.17223228	     -5.43750621	     84.39699090	     -5.50954014	     65.06877406	     19.13019935	     42.67646832	      0.00000000	      0.00000000	     88.47351992	    -11.99983167	     82.58951763	     13.82123736	     63.60803920	      0.00000000	      0.00000000
      0.03000000	    -21.49154032	      5.96958245	      0.14447208	      0.12648466	      1.11155540	     -0.26588355	      0.00000000	      0.50000000	      0.00000000	      0.25000000	     46.41028509	     -8.21200300	      1.72673224	     46.36968764	      0.80930372	     12.43359458	     -5.85584983	      0.00000000	      0.00000000	     95.17432213	     -9.54098255	     -3.63534269	    101.57074217	      1.77274387	     19.00574825	      2.80713679	      0.00000000	      0.00000000	    -40.39324297	     -3.24439162	     -5.39446307	     84.40593624	     -5.44680766	     65.00211064	     18.83424459	     42.92477126	      0.00000000	      0.00000000	     88.40248218	    -11.90392800	     82.45426545	     13.78511789	     62.78889168	      0.00000000	      0.00000000
      0.03500000	    -21.45890620	      5.97905073	      0.15508849	      0.12647044	      1.11165163	     -0.26596195	      0.00000000	      0.50000000	      0.00000000	      0.25000000	     46.36707940	     -8.23855488	      1.71843333	     46.35242890	      0.80900250	     12.41819311	     -5.82219973	      0.00000000	      0.00000000	     95.13119419	     -9.51391519	     -3.64394527	    101.55166999	      1.77241100	     18.95760271	      2.80879133	      0.00000000	      0.00000000	    -40.45008949	     -3.23350627	     -5.36361013	     84.48201790	     -5.74033104	     65.31587063	     19.25634717	     43.13971842	      0.00000000	      0.00000000	     88.42107108	    -11.86211216	     82.67151582	     13.80059958	     62.46149340	      0.00000000	      0.00000000
      0.04000000	    -21.46721234	      5.98016980	      0.14847988	      0.12650498	      1.11165917	     -0.26594077	      0.00000000	      0.50000000	      0.00000000	      0.25000000	     46.37074459	     -8.23872221	      1.70150232	     46.33431731	      0.80868639	     12.40437072	     -5.80407173	      0.00000000	      0.00000000	     95.13467681	     -9.52580189	     -3.65578219	    101.56695384	      1.77267776	     19.04151625	      2.78042248	      0.00000000	      0.00000000	    -40.44997153	     -3.26330907	     -5.41059294	     84.50848451	     -5.75997566	     66.10660169	     19.09504099	     43.12942421	      0.00000000	      0.00000000	     88.40003748	    -11.95343064	     82.34806043	     13.90824019	     62.88776144	      0.00000000	      0.00000000
      0.04500000	    -21.45697620	      5.99353441	      0.17516072	      0.12647282	      1.11168226	     -0.26599445	      0.00000000	      0.50000000	      0.00000000	      0.25000000	     46.36317740	     -8.27422258	      1.68695074	     46.35148401	      0.80898601	     12.44375017	     -5.79851934	      0.00000000	      0.00000000	     95.11685358	     -9.48608468	     -3.66431390	    101.54490351	      1.77229290	     18.99754609	      2.77469338	      0.00000000	      0.00000000	    -40.44831471	     -3.25017793	     -5.42883609	     84.45291883	     -5.66449760	     65.50855735	     19.12830899	     43.01900354	      0.00000000	      0.00000000	     88.48581583	    -11.84478164	     82.14574237	     13.55301041	     64.64361783	      0.00000000	      0.00000000
      0.05000000	    -21.40850327	      6.00359955	      0.18709545	      0.12642925	      1.11179016	     -0.26598539	      0.00000000	      0.50000000	      0.00000000	      0.25000000	     46.32615902	     -8.28110859	      1.69544222	     46.37692567	      0.80943005	     12.35736352	     -5.94554061	      0.00000000	      0.00000000	     95.05472482	     -9.46255157	     -3.69969320	    101.52526480	      1.77195014	     18.94890851	      2.53933439	      0.00000000	      0.00000000	    -40.49804420	     -3.24416357	     -5.48207023	     84.47926192	     -5.16830210	     65.24381714	     18.08620258	     42.63667292	      0.00000000	      0.00000000	     88.27039154	    -11.41643692	     80.16036275	     12.83510518	     64.19626579	      0.00000000	      0.00000000
      0.05500000	    -21.46780074	      5.99622240	      0.16573442	      0.12647657	      1.11169403	     -0.26594842	      0.00000000	      0.50000000	      0.00000000	      0.25000000	     46.36517251	     -8.25587419	      1.71311949	     46.33239253	      0.80865280	     12.43828895	     -5.81317390	      0.00000000	      0.00000000	     95.11973897	     -9.50375624	     -3.66921212	    101.54236405	      1.77224858	     18.99452401	      2.76858422	      0.00000000	      0.00000000	    -40.45057329	     -3.25566215	     -5.43208505	     84.51817840	     -5.70765318	     65.87272372	     19.12116865	     43.09425518	      0.00000000	      0.00000000	     88.48859386	    -11.92975931	     82.22274191	     13.76433754	     64.04834118	      0.00000000	      0.00000000
      0.06000000	    -21.51426136	      5.93969850	      0.18521714	      0.12641935	      1.11155924	     -0.26607032	      0.00000000	      0.50000000	      0.00000000	      0.25000000	     46.42189130	     -8.23363802	      1.65499960	     46.35046678	      0.80896826	     12.41171854	     -5.81305669	      0.00000000	      0.00000000	     95.20182269	     -9.47533452	     -3.60919137	    101.55635257	      1.77249273	     19.00763819	      2.78963395	      0.00000000	      0.00000000	    -40.38119578	     -3.18309258	     -5.41632346	     84.53910868	     -5.60569232	     65.98708500	     18.90034263	     42.96266087	      0.00000000	      0.00000000	     88.42196323	    -11.85583536	     81.80899560	     13.57830663	     64.43117257	      0.00000000	      0.00000000
      0.06500000	    -21.50746565	      5.96445982	      0.16591195	      0.12642682	      1.11157834	     -0.26598043	      0.00000000	      0.50000000	      0.00000000	      0.25000000	     46.41500831	     -8.23468356	      1.69053444	     46.34403405	      0.80885598	     12.41637470	     -5.81472350	      0.00000000	      0.00000000	     95.18349467	     -9.50928792	     -3.63502177	    101.55138483	      1.77240603	     18.99601134	      2.79922797	      0.00000000	      0.00000000	    -40.39180315	     -3.23310296	     -5.41710589	     84.48811780	     -5.66498413	     65.79910195	     19.10906845	     42.82922205	      0.00000000	      0.00000000	     88.49628902	    -11.83689414	     81.75762474	     13.43859448	     65.58844622	      0.00000000	      0.00000000
      0.07000000	    -21.51358493	      5.96588925	      0.16443750	      0.12642170	      1.11155609	     -0.26598596	      0.00000000	      0.50000000	      0.00000000	      0.25000000	     46.42563592	     -8.22897028	      1.70140795	     46.35042876	      0.80896759	     12.40674855	     -5.86409212	      0.00000000	      0.00000000	     95.19000406	     -9.51347419	     -3.63609862	    101.55010153	      1.77238363	     19.00492507	      2.79603433	      0.00000000	      0.00000000	    -40.38154485	     -3.25187470	     -5.36280612	     84.48509411	     -5.80547381	     65.92839876	     19.24545841	     42.84992712	      0.00000000	      0.00000000	     88.52008438	    -11.69018620	     81.68684231	     13.21742591	     66.31499965	      0.00000000	      0.00000000
      0.07500000	    -21.48391661	      6.06259022	      0.11677778	      0.12641014	      1.11166477	     -0.26584562	      0.00000000	      0.50000000	      0.00000000	      0.25000000	     46.42443575	     -8.27180450	      1.79761268	     46.36478544	      0.80921816	     12.40602396	     -5.87639421	      0.00000000	      0.00000000	     95.11032816	     -9.57555400	     -3.75386169	    101.52977764	      1.77202891	     19.00411719	      2.78495707	      0.00000000	      0.00000000	    -40.42602122	     -3.38473213	     -5.35876984	     84.49518111	     -5.82463590	     65.62865566	     19.25562705	     43.06834578	      0.00000000	      0.00000000	     88.47170713	    -11.55850729	     82.02138866	     13.22893335	     64.03826694	      0.00000000	      0.00000000
